<?xml version="1.0" encoding="UTF-8"?>
<svg id="Calque_1" xmlns="http://www.w3.org/2000/svg" baseProfile="tiny" version="1.2" viewBox="0 0 355 200">
  <!-- Generator: Adobe Illustrator 30.3.0, SVG Export Plug-In . SVG Version: 2.1.3 Build 182)  -->
  <g>
    <path d="M257.13,49.81c0-5.27-4.27-9.54-9.54-9.54s-9.54,4.27-9.54,9.54,4.27,9.54,9.54,9.54,9.54-4.27,9.54-9.54ZM189.15,143.26c8.75-.02,17.4-2.86,23.52-8.16,8.11-7.02,9.67-18.54,6.07-28.47-3.34-9.2-12.41-14.11-24-16.39,8.77-3.09,15.19-8.14,17.68-15.44,2.65-7.76.67-16.56-5.86-22.03-6.45-5.4-15.66-7.53-24.17-7.52l-41.99.08-.2,8.81,9.74.19-.32,73.22c0,1.98-.89,6.02-2.53,6.44l-6.74,1.72v7.65l48.8-.11h0ZM280.22,141.14c11.74,8.33,26.3,4.41,36.16-4.44l.75,6.72,24.78-.04-.09-8.72-9.38.09-.29-42.63c-.06-9.5-5.77-17.56-14.68-20.2-15.4-4.56-35.57.21-39.88,12.34-2,5.64.28,10.58,5.43,11.91,3.34.87,10.01-.73,9.46-5.96l-.77-7.33c2.72-3.12,7.47-4.66,12.14-4.79,5.28-.14,10.29,2.47,11.2,8.29.69,4.42.84,9.85.87,14.46-17.71,1.32-39.75,6.94-42.16,22.86-1,6.64.55,13.23,6.46,17.42v.02ZM231.51,143.41l32.7-.09.03-8.53-8.35.19.08-63.94c-7.2-.8-13.94,4.87-25.62,4.26l-.1,8.19,9.26-.41-.27,45.72c-.03,4.57-3.18,7.19-7.98,7.22-.68,1.47-.61,6.32.26,7.39h-.01Z" fill="#fff"/>
    <g>
      <path d="M280.22,141.14c-5.91-4.19-7.46-10.78-6.46-17.42,2.41-15.93,24.45-21.55,42.16-22.86-.03-4.61-.18-10.04-.87-14.46-.91-5.82-5.92-8.44-11.2-8.29-4.67.13-9.43,1.67-12.14,4.79l.77,7.33c.55,5.22-6.12,6.82-9.46,5.96-5.15-1.34-7.44-6.28-5.43-11.91,4.31-12.13,24.49-16.9,39.88-12.34,8.91,2.64,14.61,10.7,14.68,20.2l.29,42.63,9.38-.09.09,8.72-24.78.04-.75-6.72c-9.86,8.85-24.42,12.77-36.16,4.44v-.02ZM298.96,134.4c5.88.89,13.83-1.96,16.64-6.76l.4-18.83c-13.51,1.6-26.89,5.89-25.37,18.05.4,3.18,3.38,6.8,8.33,7.55h0Z"/>
      <g>
        <path d="M231.51,143.41c-.87-1.07-.93-5.92-.26-7.39,4.8-.03,7.95-2.65,7.98-7.22l.27-45.72-9.26.41.1-8.19c11.69.61,18.42-5.06,25.62-4.26l-.08,63.94,8.35-.19-.03,8.53-32.7.09h.01Z"/>
        <circle cx="247.58" cy="49.81" r="9.54"/>
      </g>
    </g>
    <path d="M189.15,143.26l-48.81.11v-7.65l6.75-1.72c1.64-.42,2.52-4.46,2.53-6.44l.32-73.22-9.74-.19.2-8.81,41.99-.08c8.51-.02,17.72,2.12,24.17,7.52,6.53,5.46,8.51,14.27,5.86,22.03-2.49,7.3-8.91,12.35-17.68,15.44,11.59,2.28,20.67,7.19,24,16.39,3.6,9.93,2.04,21.45-6.07,28.47-6.12,5.3-14.78,8.14-23.52,8.16h0ZM185.9,86.26c11.58-4.46,12.84-22.7,5.06-29.2-6.16-5.15-18.16-5.09-21.42-2.06-1.23,1.14-2.55,4.58-2.55,6.36l.04,26.48c5.99.18,13.03.67,18.87-1.58ZM202.36,115.21c-.18-9.98-5.9-17.31-15.82-18.31-6.24-.63-13.05-.59-19.49-.52l-.13,38.36c6.57.1,13.53.24,19.85-.3,10.27-.88,15.77-9.19,15.59-19.22h0Z"/>
  </g>
  <g>
    <path d="M79.63,108.93c7.57,12.84,4.13,27.77-6.69,36.45-10.23,8.2-25.01,8.44-36.46-.91-11.16-9.11-14.52-24.34-10.7-39.5,2.93-11.62,12.88-23.63,26.71-27.16,26.05-6.66,48.86,11.42,53.24,36.9,5.74,33.36-14.05,61.73-48.41,67.26,31.49,7.89,62.37-9.47,75.11-37.03l9.96-21.53c6.04-13.05,19.53-9.56,22.01-17.98.76-2.58-.34-8.63-2.15-10.7l-8.23-9.39,14.18-21.81,6.92-4.23c1.66-1.01-.16-7.09-2.08-6.92l-6.65.61c-1.61.15-.73,6.15-1.88,7.62l-13.36,16.99c-1.95,2.48-4.33,3.73-7.37,4,1.37-10.49,2.14-18.88,4.72-28.37.68-2.49,3.91-6.04,1.22-8.25-1.95-1.6-6.11-1.62-7.7-.14-1.37,1.27.36,6.7.14,8.62-.96,8.45-3.68,20.3-7.08,28.09l-13.49,11.6c-14.21-36.72-57.6-52.32-89.62-31.79C-1.41,82.76-8.62,128.29,17.48,157.62c11.89,13.36,28.93,19,45.93,15.1,15.58-3.57,28.64-15.4,33.89-32.12,5.64-17.97,1.27-38.58-13.92-50.09-10.46-7.93-24.27-9.05-35.24-3.08-10.17,5.55-16.46,16.38-16.68,29.18-.26,15.39,11.57,29.05,27.84,26.93,11.65-1.52,19.76-15.38,16.44-26.35-1.39-4.57-4.76-8.63-7.72-9.8-3.56-1.4-9.31-.84-12.24,1.38-2.72,2.05-4.9,8.47-3.33,11.18,1.26,2.16,4.57,3.73,8.8,5.97-.34,1.3-1.22,3.85-2.56,4.4s-5.87-.04-7.3-.79c-6.09-3.18-8.14-11.96-5.62-19.06,1.88-5.3,7.49-10.56,14.4-11.07,7.9-.58,15.23,2.34,19.45,9.5v.03Z" fill="#ca8127"/>
    <path d="M79.63,108.93c-4.22-7.16-11.56-10.08-19.45-9.5-6.91.51-12.52,5.77-14.4,11.07-2.53,7.1-.47,15.88,5.62,19.06,1.43.75,5.96,1.34,7.3.79s2.22-3.1,2.56-4.4c-4.23-2.25-7.54-3.81-8.8-5.97-1.58-2.71.61-9.13,3.33-11.18,2.94-2.22,8.68-2.78,12.24-1.38,2.96,1.16,6.34,5.23,7.72,9.8,3.33,10.97-4.79,24.83-16.44,26.35-16.27,2.13-28.1-11.54-27.84-26.93.22-12.8,6.5-23.63,16.68-29.18,10.96-5.98,24.77-4.85,35.24,3.08,15.19,11.51,19.56,32.11,13.92,50.09-5.25,16.73-18.3,28.55-33.89,32.12-17.01,3.9-34.04-1.74-45.93-15.1C-8.62,128.32-1.4,82.79,31.98,61.39c32.02-20.53,75.41-4.93,89.62,31.79l13.49-11.6c3.4-7.79,6.12-19.64,7.08-28.09.22-1.92-1.5-7.35-.14-8.62,1.6-1.49,5.75-1.46,7.7.14,2.69,2.2-.55,5.76-1.22,8.25-2.58,9.49-3.35,17.88-4.72,28.37,3.05-.27,5.42-1.52,7.37-4l13.36-16.99c1.16-1.47.28-7.48,1.88-7.62l6.65-.61c1.92-.18,3.74,5.9,2.08,6.92l-6.92,4.23-14.18,21.81,8.23,9.39c1.81,2.07,2.91,8.12,2.15,10.7-2.48,8.42-15.97,4.92-22.01,17.98l-9.96,21.53c-12.74,27.56-43.61,44.92-75.11,37.03,34.37-5.53,54.15-33.9,48.41-67.26-4.38-25.48-27.19-43.56-53.24-36.9-13.83,3.54-23.78,15.54-26.71,27.16-3.82,15.16-.46,30.38,10.7,39.5,11.46,9.35,26.23,9.11,36.46.91,10.82-8.67,14.25-23.61,6.69-36.45v-.03Z" fill="#ca8127"/>
  </g>
  <g>
    <path d="M139.19,176.91v-26.19h2.99c4.08,6.29,13.66,20.92,15.3,23.76h.04c-.22-3.78-.19-7.63-.19-11.9v-11.86h2.06v26.19h-2.77c-3.89-6.06-13.62-21.29-15.49-24.17h-.04c.19,3.44.15,7.26.15,12.01v12.16h-2.06.01Z" fill="#1d1d1b"/>
    <path d="M188.23,167.86l-3.33,9.05h-2.06l9.62-26.19h2.39l10.03,26.19h-2.21l-3.41-9.05h-11.04,0ZM198.59,165.99c-2.92-7.78-4.42-11.52-4.94-13.28h-.04c-.64,1.98-2.32,6.62-4.68,13.28h9.66Z" fill="#1d1d1b"/>
    <path d="M250.89,164.86c0-5.12.04-10.03.15-12.65h-.11c-1.05,3.52-6.36,16.42-9.69,24.69h-1.98c-2.51-6.4-8.01-20.76-9.2-24.73h-.08c.19,2.99.26,9.09.26,13.58v11.15h-2.02v-26.19h3.03c3.59,8.98,8.12,20.73,9.09,23.68h.07c.6-1.91,5.84-14.97,9.5-23.68h2.99v26.19h-2.02v-12.05h0Z" fill="#1d1d1b"/>
    <path d="M281.26,150.72v15.86c0,6.96,3.93,8.75,7.63,8.75,4.38,0,7.63-1.83,7.63-8.75v-15.86h2.06v15.75c0,8.19-4.34,10.74-9.77,10.74s-9.65-2.81-9.65-10.4v-16.09h2.1,0Z" fill="#1d1d1b"/>
    <path d="M326.68,164.68v12.23h-2.06v-26.19h9.39c5.16,0,7.89,2.77,7.89,6.88,0,3.33-1.98,5.5-4.9,6.14,2.69.64,4.49,2.39,4.49,6.85v1.01c0,1.83-.15,4.3.34,5.31h-2.06c-.49-1.12-.37-3.22-.37-5.46v-.67c0-4.3-1.27-6.1-6.29-6.1h-6.44,0ZM326.68,162.8h6.32c4.6,0,6.73-1.72,6.73-5.16,0-3.22-2.1-5.05-6.17-5.05h-6.88v10.21Z" fill="#1d1d1b"/>
  </g>
  <g>
    <path d="M140.36,185.1h.65v7.8h4.51l-.12.6h-5.04v-8.4h0Z" fill="#1d1d1b"/>
    <path d="M148.69,190.57c.01,1.55.79,2.51,1.94,2.51s1.51-.64,1.73-1.13h.61c-.25.79-.89,1.69-2.36,1.69-1.82,0-2.53-1.57-2.53-3.09,0-1.71.85-3.19,2.6-3.19,1.85,0,2.43,1.59,2.43,2.72,0,.17,0,.34-.01.49h-4.41ZM152.49,190.04c-.01-1.19-.66-2.12-1.83-2.12-1.24,0-1.8.86-1.93,2.12h3.77-.01Z" fill="#1d1d1b"/>
    <path d="M165.72,191.73c-.29,1.05-.98,1.91-2.33,1.91-1.5,0-2.57-1.12-2.57-3.12,0-1.64.88-3.17,2.64-3.17,1.52,0,2.15,1.08,2.25,1.92h-.61c-.18-.7-.64-1.36-1.65-1.36-1.27,0-1.99,1.08-1.99,2.58s.67,2.58,1.93,2.58c.88,0,1.4-.44,1.71-1.34h.62Z" fill="#1d1d1b"/>
    <path d="M173.07,192.35c0,.53.05.95.08,1.14h-.58c-.05-.14-.08-.41-.11-.92-.2.44-.73,1.07-1.97,1.07-1.39,0-1.99-.9-1.99-1.8,0-1.32,1.02-1.92,2.82-1.92h1.14v-.61c0-.6-.18-1.4-1.55-1.4-1.21,0-1.39.64-1.52,1.13h-.6c.07-.66.48-1.68,2.13-1.68,1.37,0,2.13.58,2.13,1.89v3.11h.02ZM172.48,190.43h-1.18c-1.33,0-2.16.35-2.16,1.38,0,.75.54,1.27,1.38,1.27,1.71,0,1.96-1.14,1.96-2.43v-.22h0Z" fill="#1d1d1b"/>
    <path d="M176.85,189.13c0-1.01-.01-1.44-.01-1.63h.59c.01.19.02.58.02,1.34.35-.9,1.12-1.44,2.09-1.49v.65c-1.25.08-2.09.95-2.09,2.38v3.12h-.6v-4.37h0Z" fill="#1d1d1b"/>
    <path d="M182.41,189.01c0-.53,0-1.03-.01-1.51h.59c.02.19.04.97.02,1.14.26-.61.76-1.28,1.99-1.28,1.07,0,2.01.6,2.01,2.25v3.89h-.6v-3.79c0-1.07-.44-1.76-1.49-1.76-1.43,0-1.92,1.19-1.92,2.49v3.06h-.6v-4.49h.01Z" fill="#1d1d1b"/>
    <path d="M190.92,190.57c.01,1.55.79,2.51,1.94,2.51s1.51-.64,1.73-1.13h.61c-.25.79-.89,1.69-2.36,1.69-1.82,0-2.53-1.57-2.53-3.09,0-1.71.85-3.19,2.6-3.19,1.85,0,2.43,1.59,2.43,2.72,0,.17,0,.34-.01.49h-4.41ZM194.72,190.04c-.01-1.19-.66-2.12-1.83-2.12-1.24,0-1.8.86-1.93,2.12h3.77-.01Z" fill="#1d1d1b"/>
    <path d="M197.81,187.5h1.12v-1.87h.6v1.87h1.43v.56h-1.43v3.9c0,.67.14,1.06.72,1.06.18,0,.43-.01.62-.07v.53c-.2.08-.49.11-.74.11-.77,0-1.2-.38-1.2-1.34v-4.17h-1.12v-.58Z" fill="#1d1d1b"/>
    <path d="M208.74,187.5c.97,2.75,1.64,4.62,1.87,5.39h.01c.13-.44.8-2.23,1.97-5.39h.64l-2.27,6h-.72l-2.13-6h.64-.01Z" fill="#1d1d1b"/>
    <path d="M216.24,184.65h.6v1.16h-.6v-1.16ZM216.24,187.5h.6v6h-.6v-6Z" fill="#1d1d1b"/>
    <path d="M220.51,187.5c.97,2.75,1.64,4.62,1.87,5.39h.01c.13-.44.8-2.23,1.97-5.39h.64l-2.27,6h-.72l-2.13-6h.64-.01Z" fill="#1d1d1b"/>
    <path d="M231.98,192.35c0,.53.05.95.08,1.14h-.58c-.05-.14-.08-.41-.11-.92-.2.44-.73,1.07-1.97,1.07-1.39,0-1.99-.9-1.99-1.8,0-1.32,1.02-1.92,2.82-1.92h1.14v-.61c0-.6-.18-1.4-1.55-1.4-1.21,0-1.39.64-1.52,1.13h-.6c.07-.66.48-1.68,2.13-1.68,1.37,0,2.13.58,2.13,1.89v3.11h.02ZM231.39,190.43h-1.18c-1.33,0-2.16.35-2.16,1.38,0,.75.54,1.27,1.38,1.27,1.71,0,1.96-1.14,1.96-2.43v-.22h0Z" fill="#1d1d1b"/>
    <path d="M235.76,189.01c0-.53,0-1.03-.01-1.51h.59c.02.19.04.97.02,1.14.26-.61.76-1.28,1.99-1.28,1.07,0,2.01.6,2.01,2.25v3.89h-.6v-3.79c0-1.07-.44-1.76-1.49-1.76-1.43,0-1.92,1.19-1.92,2.49v3.06h-.6v-4.49h.01Z" fill="#1d1d1b"/>
    <path d="M243.2,187.5h1.12v-1.87h.6v1.87h1.43v.56h-1.43v3.9c0,.67.14,1.06.72,1.06.18,0,.43-.01.62-.07v.53c-.2.08-.49.11-.74.11-.77,0-1.2-.38-1.2-1.34v-4.17h-1.12v-.58Z" fill="#1d1d1b"/>
    <path d="M258.92,184.65v7.11c0,.58,0,1.13.01,1.73h-.58c-.02-.14-.04-.71-.04-1.01-.3.73-.97,1.15-2.01,1.15-1.56,0-2.5-1.27-2.5-3.07s1.02-3.21,2.65-3.21c1.2,0,1.68.52,1.86.9v-3.6h.61ZM254.44,190.54c0,1.64.85,2.53,1.88,2.53,1.58,0,2.01-1.09,2.01-2.72s-.37-2.43-1.91-2.43c-1.19,0-1.99.95-1.99,2.63h0Z" fill="#1d1d1b"/>
    <path d="M262.82,190.57c.01,1.55.79,2.51,1.94,2.51s1.51-.64,1.73-1.13h.61c-.25.79-.89,1.69-2.36,1.69-1.82,0-2.53-1.57-2.53-3.09,0-1.71.85-3.19,2.6-3.19,1.85,0,2.43,1.59,2.43,2.72,0,.17,0,.34-.01.49h-4.41ZM266.62,190.04c-.01-1.19-.66-2.12-1.83-2.12-1.24,0-1.8.86-1.93,2.12h3.77-.01Z" fill="#1d1d1b"/>
    <path d="M270.66,191.84c.2.78.76,1.25,1.7,1.25,1.07,0,1.5-.49,1.5-1.16s-.29-1.02-1.63-1.34c-1.55-.37-1.93-.84-1.93-1.63s.62-1.59,1.98-1.59,2,.83,2.1,1.68h-.6c-.11-.5-.5-1.13-1.52-1.13s-1.34.52-1.34,1c0,.55.29.83,1.48,1.12,1.69.41,2.11.96,2.11,1.86,0,1.09-.89,1.76-2.15,1.76-1.37,0-2.13-.72-2.3-1.8h.61v-.02Z" fill="#1d1d1b"/>
    <path d="M282.9,193.49v-8.4h.96c1.31,2.01,4.38,6.7,4.91,7.62h.01c-.07-1.21-.06-2.45-.06-3.81v-3.8h.66v8.4h-.89c-1.25-1.94-4.37-6.82-4.96-7.75h-.01c.06,1.1.05,2.33.05,3.85v3.9h-.67Z" fill="#1d1d1b"/>
    <path d="M297.33,192.35c0,.53.05.95.08,1.14h-.58c-.05-.14-.08-.41-.11-.92-.2.44-.73,1.07-1.97,1.07-1.39,0-1.99-.9-1.99-1.8,0-1.32,1.02-1.92,2.82-1.92h1.14v-.61c0-.6-.18-1.4-1.55-1.4-1.21,0-1.39.64-1.52,1.13h-.6c.07-.66.48-1.68,2.13-1.68,1.37,0,2.14.58,2.14,1.89v3.11h0ZM296.74,190.43h-1.18c-1.33,0-2.16.35-2.16,1.38,0,.75.54,1.27,1.38,1.27,1.71,0,1.96-1.14,1.96-2.43v-.22h0Z" fill="#1d1d1b"/>
    <path d="M301.11,189.04c0-.52,0-1.08-.01-1.55h.59c.01.2.04.72.02,1.07.25-.6.8-1.21,1.8-1.21.84,0,1.5.42,1.74,1.19.3-.62.9-1.19,1.96-1.19.92,0,1.88.53,1.88,2.19v3.95h-.6v-3.87c0-.8-.29-1.68-1.4-1.68s-1.69.94-1.69,2.1v3.45h-.59v-3.86c0-.88-.26-1.69-1.37-1.69s-1.73,1.03-1.73,2.25v3.3h-.6v-4.45h0Z" fill="#1d1d1b"/>
    <path d="M317.26,191.74c0,.59.01,1.52.01,1.75h-.58c-.02-.16-.04-.55-.04-1.04-.25.71-.86,1.19-1.93,1.19-.86,0-1.97-.34-1.97-2.17v-3.97h.59v3.83c0,.88.28,1.73,1.46,1.73,1.34,0,1.85-.76,1.85-2.47v-3.08h.6v4.25-.02Z" fill="#1d1d1b"/>
    <path d="M321.03,189.13c0-1.01-.01-1.44-.01-1.63h.59c.01.19.02.58.02,1.34.35-.9,1.12-1.44,2.09-1.49v.65c-1.25.08-2.09.95-2.09,2.38v3.12h-.6v-4.37h0Z" fill="#1d1d1b"/>
    <path d="M331.48,190.48c0,1.67-.92,3.15-2.71,3.15-1.62,0-2.63-1.33-2.63-3.14s.95-3.14,2.69-3.14c1.59,0,2.65,1.25,2.65,3.13ZM326.78,190.49c0,1.43.77,2.58,2.04,2.58s2.03-1.07,2.03-2.58c0-1.42-.72-2.58-2.05-2.58s-2.01,1.14-2.01,2.58h-.01Z" fill="#1d1d1b"/>
    <path d="M334.82,184.65h.6v1.16h-.6v-1.16ZM334.82,187.5h.6v6h-.6v-6Z" fill="#1d1d1b"/>
    <path d="M339.13,191.84c.2.78.76,1.25,1.7,1.25,1.07,0,1.5-.49,1.5-1.16s-.29-1.02-1.63-1.34c-1.55-.37-1.93-.84-1.93-1.63s.62-1.59,1.98-1.59,2,.83,2.1,1.68h-.6c-.11-.5-.5-1.13-1.52-1.13s-1.34.52-1.34,1c0,.55.29.83,1.48,1.12,1.69.41,2.11.96,2.11,1.86,0,1.09-.89,1.76-2.15,1.76-1.37,0-2.13-.72-2.3-1.8h.61v-.02Z" fill="#1d1d1b"/>
  </g>
</svg>