<?xml version="1.0" encoding="UTF-8"?>
<!--
  Bia Namur — Mark logo (escargot des Molons).
  Source : assets-logo/escargot.svg (vectorise par le user, viewbox A4 d'origine).
  Recadre/centre dans un carre 512x512 avec fond creme.
-->
<svg xmlns="http://www.w3.org/2000/svg" viewBox="0 0 512 512" role="img" aria-label="Bia Namur — Escargot">
  <title>Bia Namur</title>

  <rect width="512" height="512" rx="80" fill="#F5EDDC"/>

  <!--
    Transform : place le snail (bbox originale ~ x:140-415, y:320-490)
    centre dans 512x512 avec ~17% de padding visuel.
    scale 1.4, translate ajuste pour centrer.
  -->
  <g transform="translate(-138 -342) scale(1.4)" fill="#C77F2C">
    <path d="M293.32,414.41c7.57,12.84,4.13,27.77-6.69,36.45-10.23,8.2-25.01,8.44-36.46-.91-11.16-9.11-14.52-24.34-10.7-39.5,2.93-11.62,12.88-23.63,26.71-27.16,26.05-6.66,48.86,11.42,53.24,36.9,5.74,33.36-14.05,61.73-48.41,67.26,31.49,7.89,62.37-9.47,75.11-37.03l9.96-21.53c6.04-13.05,19.53-9.56,22.01-17.98.76-2.58-.34-8.63-2.15-10.7l-8.23-9.39,14.18-21.81,6.92-4.23c1.66-1.01-.16-7.09-2.08-6.92l-6.65.61c-1.61.15-.73,6.15-1.88,7.62l-13.36,16.99c-1.95,2.48-4.33,3.73-7.37,4,1.37-10.49,2.14-18.88,4.72-28.37.68-2.49,3.91-6.04,1.22-8.25-1.95-1.6-6.11-1.62-7.7-.14-1.37,1.27.36,6.7.14,8.62-.96,8.45-3.68,20.3-7.08,28.09l-13.49,11.6c-14.21-36.72-57.6-52.32-89.62-31.79-33.38,21.4-40.59,66.93-14.49,96.26,11.89,13.36,28.93,19,45.93,15.1,15.58-3.57,28.64-15.4,33.89-32.12,5.64-17.97,1.27-38.58-13.92-50.09-10.46-7.93-24.27-9.05-35.24-3.08-10.17,5.55-16.46,16.38-16.68,29.18-.26,15.39,11.57,29.05,27.84,26.93,11.65-1.52,19.76-15.38,16.44-26.35-1.39-4.57-4.76-8.63-7.72-9.8-3.56-1.4-9.31-.84-12.24,1.38-2.72,2.05-4.9,8.47-3.33,11.18,1.26,2.16,4.57,3.73,8.8,5.97-.34,1.3-1.22,3.85-2.56,4.4s-5.87-.04-7.3-.79c-6.09-3.18-8.14-11.96-5.62-19.06,1.88-5.3,7.49-10.56,14.4-11.07,7.9-.58,15.23,2.34,19.45,9.5Z"/>
    <path d="M293.32,414.41c-4.22-7.16-11.56-10.08-19.45-9.5-6.91.51-12.52,5.77-14.4,11.07-2.53,7.1-.47,15.88,5.62,19.06,1.43.75,5.96,1.34,7.3.79s2.22-3.1,2.56-4.4c-4.23-2.25-7.54-3.81-8.8-5.97-1.58-2.71.61-9.13,3.33-11.18,2.94-2.22,8.68-2.78,12.24-1.38,2.96,1.16,6.34,5.23,7.72,9.8,3.33,10.97-4.79,24.83-16.44,26.35-16.27,2.13-28.1-11.54-27.84-26.93.22-12.8,6.5-23.63,16.68-29.18,10.96-5.98,24.77-4.85,35.24,3.08,15.19,11.51,19.56,32.11,13.92,50.09-5.25,16.73-18.3,28.55-33.89,32.12-17.01,3.9-34.04-1.74-45.93-15.1-26.11-29.33-18.89-74.86,14.49-96.26,32.02-20.53,75.41-4.93,89.62,31.79l13.49-11.6c3.4-7.79,6.12-19.64,7.08-28.09.22-1.92-1.5-7.35-.14-8.62,1.6-1.49,5.75-1.46,7.7.14,2.69,2.2-.55,5.76-1.22,8.25-2.58,9.49-3.35,17.88-4.72,28.37,3.05-.27,5.42-1.52,7.37-4l13.36-16.99c1.16-1.47.28-7.48,1.88-7.62l6.65-.61c1.92-.18,3.74,5.9,2.08,6.92l-6.92,4.23-14.18,21.81,8.23,9.39c1.81,2.07,2.91,8.12,2.15,10.7-2.48,8.42-15.97,4.92-22.01,17.98l-9.96,21.53c-12.74,27.56-43.61,44.92-75.11,37.03,34.37-5.53,54.15-33.9,48.41-67.26-4.38-25.48-27.19-43.56-53.24-36.9-13.83,3.54-23.78,15.54-26.71,27.16-3.82,15.16-.46,30.38,10.7,39.5,11.46,9.35,26.23,9.11,36.46.91,10.82-8.67,14.25-23.61,6.69-36.45Z"/>
  </g>
</svg>
