<?xml version="1.0" encoding="UTF-8"?>
<svg id="Calque_1" xmlns="http://www.w3.org/2000/svg" baseProfile="tiny" version="1.2" viewBox="0 0 32 32">
  <!-- Generator: Adobe Illustrator 30.3.0, SVG Export Plug-In . SVG Version: 2.1.3 Build 182)  -->
  <path d="M14.59,16.26c1.32,2.23.72,4.83-1.16,6.34-1.78,1.43-4.35,1.47-6.34-.16-1.94-1.58-2.53-4.23-1.86-6.87.51-2.02,2.24-4.11,4.65-4.72,4.53-1.16,8.5,1.99,9.26,6.42,1,5.8-2.44,10.74-8.42,11.7,5.48,1.37,10.85-1.65,13.07-6.44l1.73-3.75c1.05-2.27,3.4-1.66,3.83-3.13.13-.45-.06-1.5-.37-1.86l-1.43-1.63,2.47-3.79,1.2-.74c.29-.18-.03-1.23-.36-1.2l-1.16.11c-.28.03-.13,1.07-.33,1.33l-2.32,2.96c-.34.43-.75.65-1.28.7.24-1.82.37-3.28.82-4.94.12-.43.68-1.05.21-1.44-.34-.28-1.06-.28-1.34-.02-.24.22.06,1.17.02,1.5-.17,1.47-.64,3.53-1.23,4.89l-2.35,2.02c-2.47-6.39-10.02-9.1-15.59-5.53C.49,11.71-.76,19.63,3.78,24.73c2.07,2.32,5.03,3.31,7.99,2.63,2.71-.62,4.98-2.68,5.9-5.59.98-3.13.22-6.71-2.42-8.71-1.82-1.38-4.22-1.57-6.13-.54-1.77.97-2.86,2.85-2.9,5.08-.05,2.68,2.01,5.05,4.84,4.68,2.03-.26,3.44-2.68,2.86-4.58-.24-.8-.83-1.5-1.34-1.7-.62-.24-1.62-.15-2.13.24-.47.36-.85,1.47-.58,1.94.22.38.8.65,1.53,1.04-.06.23-.21.67-.45.77s-1.02,0-1.27-.14c-1.06-.55-1.42-2.08-.98-3.32.33-.92,1.3-1.84,2.51-1.93,1.37-.1,2.65.41,3.38,1.65h0Z" fill="#c98126"/>
  <path d="M14.59,16.26c-.73-1.25-2.01-1.75-3.38-1.65-1.2.09-2.18,1-2.51,1.93-.44,1.24-.08,2.76.98,3.32.25.13,1.04.23,1.27.14s.39-.54.45-.77c-.74-.39-1.31-.66-1.53-1.04-.27-.47.11-1.59.58-1.94.51-.39,1.51-.48,2.13-.24.51.2,1.1.91,1.34,1.7.58,1.91-.83,4.32-2.86,4.58-2.83.37-4.89-2.01-4.84-4.68.04-2.23,1.13-4.11,2.9-5.08,1.91-1.04,4.31-.84,6.13.54,2.64,2,3.4,5.59,2.42,8.71-.91,2.91-3.18,4.97-5.9,5.59-2.96.68-5.92-.3-7.99-2.63C-.76,19.64.49,11.72,6.3,7.99c5.57-3.57,13.12-.86,15.59,5.53l2.35-2.02c.59-1.36,1.06-3.42,1.23-4.89.04-.33-.26-1.28-.02-1.5.28-.26,1-.25,1.34.02.47.38-.1,1-.21,1.44-.45,1.65-.58,3.11-.82,4.94.53-.05.94-.26,1.28-.7l2.32-2.96c.2-.26.05-1.3.33-1.33l1.16-.11c.33-.03.65,1.03.36,1.2l-1.2.74-2.47,3.79,1.43,1.63c.31.36.51,1.41.37,1.86-.43,1.46-2.78.86-3.83,3.13l-1.73,3.75c-2.22,4.79-7.59,7.81-13.07,6.44,5.98-.96,9.42-5.9,8.42-11.7-.76-4.43-4.73-7.58-9.26-6.42-2.41.62-4.14,2.7-4.65,4.72-.66,2.64-.08,5.29,1.86,6.87,1.99,1.63,4.56,1.58,6.34.16,1.88-1.51,2.48-4.11,1.16-6.34h0Z" fill="#c98126"/>
</svg>